<svg width="122" height="78" viewBox="0 0 122 78" fill="none" xmlns="http://www.w3.org/2000/svg">
<path d="M13.824 53.56C13.824 54.84 13.952 55.8213 14.208 56.504C14.5067 57.144 15.104 57.592 16 57.848C16.896 58.104 18.2187 58.232 19.968 58.232C20.096 58.232 20.16 58.36 20.16 58.616C20.16 58.872 20.096 59 19.968 59C18.6027 59 17.1093 58.9787 15.488 58.936C13.9093 58.8933 12.1813 58.872 10.304 58.872C8.768 58.872 7.296 58.8933 5.888 58.936C4.52267 58.9787 3.28533 59 2.176 59C2.048 59 1.984 58.872 1.984 58.616C1.984 58.36 2.048 58.232 2.176 58.232C3.49867 58.232 4.48 58.1253 5.12 57.912C5.76 57.6987 6.18667 57.272 6.4 56.632C6.61333 55.992 6.72 55.0533 6.72 53.816V24.184C6.72 22.9467 6.61333 22.0293 6.4 21.432C6.18667 20.792 5.76 20.3653 5.12 20.152C4.48 19.896 3.49867 19.768 2.176 19.768C2.048 19.768 1.984 19.64 1.984 19.384C1.984 19.128 2.048 19 2.176 19C3.28533 19 4.52267 19.0427 5.888 19.128C7.25333 19.1707 8.704 19.192 10.24 19.192C11.264 19.192 12.608 19.128 14.272 19C15.936 18.872 17.4933 18.808 18.944 18.808C21.632 18.808 24 19.1707 26.048 19.896C28.1387 20.5787 29.8027 21.688 31.04 23.224C32.2773 24.76 32.9387 26.7867 33.024 29.304C33.1093 31.48 32.7467 33.3787 31.936 35C31.168 36.6213 30.08 37.9653 28.672 39.032C27.3067 40.0987 25.7707 40.9093 24.064 41.464C22.4 41.976 20.736 42.232 19.072 42.232C18.6453 42.232 18.1547 42.2107 17.6 42.168C17.088 42.1253 16.576 42.04 16.064 41.912C15.936 41.8693 15.8933 41.72 15.936 41.464C15.9787 41.1653 16.0853 41.0373 16.256 41.08C16.5973 41.1653 16.9813 41.2293 17.408 41.272C17.8347 41.3147 18.176 41.336 18.432 41.336C19.6693 41.336 20.8 40.952 21.824 40.184C22.848 39.416 23.68 38.2427 24.32 36.664C24.96 35.0853 25.28 33.1227 25.28 30.776C25.28 28.5147 24.96 26.616 24.32 25.08C23.68 23.5013 22.7413 22.3067 21.504 21.496C20.2667 20.6427 18.7307 20.216 16.896 20.216C16.128 20.216 15.5093 20.3227 15.04 20.536C14.6133 20.7493 14.2933 21.1547 14.08 21.752C13.9093 22.3493 13.824 23.2027 13.824 24.312V53.56ZM49.043 59.832C46.355 59.832 44.0297 59.2133 42.067 57.976C40.1043 56.7387 38.5897 55.096 37.523 53.048C36.4563 50.9573 35.923 48.7173 35.923 46.328C35.923 44.1093 36.3497 42.1893 37.203 40.568C38.0563 38.9467 39.187 37.624 40.595 36.6C42.003 35.5333 43.539 34.744 45.203 34.232C46.867 33.72 48.5097 33.464 50.131 33.464C52.8617 33.464 55.187 34.104 57.107 35.384C59.0697 36.664 60.563 38.3067 61.587 40.312C62.611 42.3173 63.123 44.4507 63.123 46.712C63.123 49.3147 62.4617 51.6187 61.139 53.624C59.859 55.5867 58.1523 57.1227 56.019 58.232C53.8857 59.2987 51.5603 59.832 49.043 59.832ZM50.963 58.488C52.6697 58.488 53.9497 57.656 54.803 55.992C55.6563 54.328 56.083 51.9813 56.083 48.952C56.083 45.8373 55.6777 43.2347 54.867 41.144C54.099 39.0533 53.0963 37.4747 51.859 36.408C50.6217 35.3413 49.3203 34.808 47.955 34.808C46.291 34.808 45.011 35.5547 44.115 37.048C43.2617 38.5413 42.835 40.8453 42.835 43.96C42.835 46.8613 43.1977 49.4213 43.923 51.64C44.6483 53.816 45.6297 55.5013 46.867 56.696C48.1043 57.8907 49.4697 58.488 50.963 58.488ZM72.7395 37.368C72.7395 38.264 72.9742 39.0747 73.4435 39.8C73.9555 40.4827 74.5955 41.1227 75.3635 41.72C76.1315 42.2747 76.9635 42.8293 77.8595 43.384C78.9262 43.9813 79.9715 44.6213 80.9955 45.304C82.0195 45.944 82.8728 46.7333 83.5555 47.672C84.2382 48.6107 84.5795 49.8267 84.5795 51.32C84.5795 52.6853 84.2168 54.0293 83.4915 55.352C82.8088 56.632 81.7635 57.6773 80.3555 58.488C78.9475 59.2987 77.1768 59.704 75.0435 59.704C73.9768 59.704 72.9102 59.576 71.8435 59.32C70.7768 59.1067 69.6248 58.6587 68.3875 57.976C68.3022 57.8907 68.2168 57.784 68.1315 57.656C68.0462 57.528 68.0035 57.3787 68.0035 57.208L67.8755 50.872C67.8755 50.744 67.9822 50.68 68.1955 50.68C68.4515 50.6373 68.6008 50.6587 68.6435 50.744C69.1128 52.1093 69.7742 53.3893 70.6275 54.584C71.4808 55.736 72.4408 56.6747 73.5075 57.4C74.6168 58.0827 75.7262 58.424 76.8355 58.424C77.6888 58.424 78.3928 58.168 78.9475 57.656C79.5022 57.1013 79.7795 56.2693 79.7795 55.16C79.7795 53.9653 79.5022 52.984 78.9475 52.216C78.4355 51.4053 77.7742 50.7227 76.9635 50.168C76.1528 49.5707 75.3208 49.0373 74.4675 48.568C73.4862 48.0133 72.5048 47.4373 71.5235 46.84C70.5422 46.2427 69.7315 45.496 69.0915 44.6C68.4515 43.6613 68.1315 42.4453 68.1315 40.952C68.1315 39.16 68.5795 37.7307 69.4755 36.664C70.3715 35.5973 71.5235 34.8293 72.9315 34.36C74.3822 33.8907 75.8755 33.656 77.4115 33.656C78.3502 33.656 79.2035 33.72 79.9715 33.848C80.7822 33.976 81.6995 34.232 82.7235 34.616C83.1075 34.744 83.2995 34.9787 83.2995 35.32C83.2995 36.1733 83.2782 37.0693 83.2355 38.008C83.1928 38.904 83.1715 39.9067 83.1715 41.016C83.1715 41.144 83.0435 41.208 82.7875 41.208C82.5315 41.208 82.4035 41.144 82.4035 41.016C82.4035 40.2053 82.0622 39.3307 81.3795 38.392C80.7395 37.4533 79.8862 36.6427 78.8195 35.96C77.7528 35.2347 76.6008 34.872 75.3635 34.872C74.7662 34.872 74.1688 35.0213 73.5715 35.32C73.0168 35.6187 72.7395 36.3013 72.7395 37.368ZM98.526 59.768C97.502 59.768 96.4567 59.5973 95.39 59.256C94.366 58.9147 93.4913 58.3173 92.766 57.464C92.0833 56.6107 91.742 55.416 91.742 53.88V39.672C91.742 38.776 91.6353 38.072 91.422 37.56C91.2087 37.048 90.8673 36.6853 90.398 36.472C89.9287 36.2587 89.2887 36.152 88.478 36.152C88.3073 36.152 88.222 35.96 88.222 35.576C88.222 35.192 88.3073 35 88.478 35C90.654 34.9147 92.4247 34.4453 93.79 33.592C95.1553 32.696 96.1793 31.3947 96.862 29.688C96.9473 29.5173 97.118 29.432 97.374 29.432C97.6727 29.432 97.822 29.5173 97.822 29.688V51.768C97.822 53.4747 98.2487 54.6907 99.102 55.416C99.998 56.1413 101.086 56.504 102.366 56.504C103.347 56.504 104.265 56.312 105.118 55.928C106.014 55.5013 106.761 55.0533 107.358 54.584C107.486 54.456 107.635 54.4987 107.806 54.712C108.019 54.8827 108.041 55.032 107.87 55.16C106.291 56.7387 104.755 57.912 103.262 58.68C101.811 59.4053 100.233 59.768 98.526 59.768ZM105.886 37.56C104.137 37.176 102.43 36.92 100.766 36.792C99.1447 36.6213 97.4167 36.536 95.582 36.536V34.872C97.3313 34.872 99.038 34.808 100.702 34.68C102.409 34.552 104.222 34.4027 106.142 34.232C106.227 34.232 106.313 34.4027 106.398 34.744C106.526 35.0427 106.59 35.384 106.59 35.768C106.59 36.1947 106.505 36.6213 106.334 37.048C106.206 37.432 106.057 37.6027 105.886 37.56Z" fill="#F5F7FA"/>
<circle cx="116" cy="56" r="4" fill="#44BD32"/>
</svg>
