<svg width="26" height="26" viewBox="0 0 26 26" fill="none" xmlns="http://www.w3.org/2000/svg">
<g clip-path="url(#clip0_174_1718)">
<path d="M23.1111 4.33337H2.8889C2.50581 4.33337 2.13841 4.48556 1.86753 4.75644C1.59664 5.02733 1.44446 5.39473 1.44446 5.77782V20.2223C1.44446 20.6054 1.59664 20.9728 1.86753 21.2436C2.13841 21.5145 2.50581 21.6667 2.8889 21.6667H23.1111C23.4942 21.6667 23.8616 21.5145 24.1325 21.2436C24.4034 20.9728 24.5556 20.6054 24.5556 20.2223V5.77782C24.5556 5.39473 24.4034 5.02733 24.1325 4.75644C23.8616 4.48556 23.4942 4.33337 23.1111 4.33337ZM21.9989 20.2223H4.08779L9.14335 14.9934L8.10335 13.9895L2.8889 19.3845V6.8756L11.8661 15.8095C12.1368 16.0785 12.5029 16.2295 12.8845 16.2295C13.2661 16.2295 13.6322 16.0785 13.9028 15.8095L23.1111 6.65171V19.2906L17.7956 13.975L16.7772 14.9934L21.9989 20.2223ZM3.83501 5.77782H21.9411L12.8845 14.7839L3.83501 5.77782Z" fill="black"/>
</g>
<defs>
<clipPath id="clip0_174_1718">
<rect width="26" height="26" fill="white"/>
</clipPath>
</defs>
</svg>
