<svg width="25" height="25" viewBox="0 0 25 25" fill="none" xmlns="http://www.w3.org/2000/svg">
<g clip-path="url(#clip0_174_1682)">
<path d="M8.86068 1.28943C6.4627 2.12131 4.39469 3.70024 2.96041 5.79431C1.52612 7.88838 0.80116 10.3872 0.892005 12.9237C0.982851 15.4603 1.88472 17.9008 3.46513 19.8869C5.04555 21.873 7.22121 23.3 9.67255 23.9582C11.6599 24.471 13.7421 24.4935 15.7401 24.0238C17.55 23.6173 19.2234 22.7476 20.5963 21.5001C22.0252 20.162 23.0624 18.4597 23.5963 16.5763C24.1767 14.5282 24.2799 12.3743 23.8982 10.2801H12.7382V14.9094H19.2013C19.0721 15.6478 18.7953 16.3525 18.3875 16.9814C17.9796 17.6102 17.449 18.1504 16.8276 18.5694C16.0383 19.0915 15.1487 19.4428 14.2157 19.6007C13.2799 19.7747 12.3202 19.7747 11.3844 19.6007C10.436 19.4046 9.53886 19.0132 8.75005 18.4513C7.48283 17.5543 6.53132 16.2799 6.0313 14.8101C5.52283 13.3127 5.52283 11.6893 6.0313 10.1919C6.38722 9.14234 6.97561 8.18669 7.75255 7.39631C8.64166 6.47521 9.7673 5.8168 11.006 5.49333C12.2446 5.16985 13.5485 5.1938 14.7744 5.56256C15.7321 5.85654 16.6079 6.37019 17.3319 7.06256C18.0607 6.33756 18.7882 5.61068 19.5144 4.88193C19.8894 4.49006 20.2982 4.11693 20.6676 3.71568C19.5624 2.6872 18.2651 1.88691 16.85 1.36068C14.2732 0.425038 11.4538 0.399894 8.86068 1.28943Z" fill="white"/>
<path d="M8.86058 1.28937C11.4535 0.399224 14.2729 0.423707 16.85 1.35874C18.2652 1.88855 19.5619 2.69269 20.6656 3.72499C20.2906 4.12624 19.895 4.50124 19.5125 4.89124C18.785 5.61749 18.0581 6.34124 17.3318 7.06249C16.6078 6.37012 15.732 5.85648 14.7743 5.56249C13.5488 5.19244 12.245 5.16711 11.006 5.48926C9.76699 5.81141 8.64067 6.46861 7.75058 7.38874C6.97364 8.17912 6.38525 9.13477 6.02933 10.1844L2.14246 7.17499C3.53372 4.41604 5.94261 2.30566 8.86058 1.28937Z" fill="#E33629"/>
<path d="M1.11128 10.1563C1.32019 9.12091 1.66704 8.11822 2.14253 7.17505L6.0294 10.1919C5.52093 11.6893 5.52093 13.3127 6.0294 14.81C4.7344 15.81 3.43878 16.815 2.14253 17.825C0.952186 15.4556 0.589153 12.756 1.11128 10.1563Z" fill="#F8BD00"/>
<path d="M12.7381 10.2781H23.8981C24.2799 12.3723 24.1766 14.5262 23.5963 16.5743C23.0623 18.4577 22.0252 20.16 20.5963 21.4981C19.3419 20.5193 18.0819 19.5481 16.8275 18.5693C17.4494 18.1498 17.9802 17.6091 18.3881 16.9796C18.796 16.35 19.0726 15.6446 19.2013 14.9056H12.7381C12.7363 13.3643 12.7381 11.8212 12.7381 10.2781Z" fill="#587DBD"/>
<path d="M2.14062 17.8251C3.43687 16.8251 4.7325 15.8201 6.0275 14.8101C6.52851 16.2804 7.48138 17.5549 8.75 18.4513C9.54127 19.0106 10.4404 19.3988 11.39 19.5913C12.3257 19.7653 13.2855 19.7653 14.2213 19.5913C15.1542 19.4334 16.0439 19.0821 16.8331 18.5601C18.0875 19.5388 19.3475 20.5101 20.6019 21.4888C19.2292 22.737 17.5558 23.6073 15.7456 24.0144C13.7476 24.4841 11.6655 24.4616 9.67813 23.9488C8.10632 23.5291 6.63814 22.7893 5.36563 21.7757C4.01874 20.7063 2.91867 19.3588 2.14062 17.8251Z" fill="#319F43"/>
</g>
<defs>
<clipPath id="clip0_174_1682">
<rect width="24" height="24" fill="white" transform="translate(0.5 0.5)"/>
</clipPath>
</defs>
</svg>
